<?xml version="1.0" encoding="UTF-8"?> <svg xmlns="http://www.w3.org/2000/svg" width="11.543" height="11.658" viewBox="0 0 11.543 11.658"><path id="Icon_Book" d="M13.044,1.98a7.551,7.551,0,0,0-1.251-.11A7.458,7.458,0,0,0,7.758,3.052,7.458,7.458,0,0,0,3.724,1.9a7.551,7.551,0,0,0-1.251.11.576.576,0,0,0-.478.576V9.5a.576.576,0,0,0,.674.576,6.283,6.283,0,0,1,4.755,1.1l.069.04h.063a.525.525,0,0,0,.4,0h.063l.069-.04a6.283,6.283,0,0,1,4.755-1.164.576.576,0,0,0,.674-.576V2.521a.576.576,0,0,0-.478-.542ZM7.182,9.64a7.418,7.418,0,0,0-3.458-.853H3.147V3.023a5.009,5.009,0,0,1,.576,0A6.259,6.259,0,0,1,7.182,4.06Zm5.187-.83h-.576a7.418,7.418,0,0,0-3.458.853V4.06a6.259,6.259,0,0,1,3.458-1.037,5.009,5.009,0,0,1,.576,0Zm.674,2.392a7.551,7.551,0,0,0-1.251-.11,7.458,7.458,0,0,0-4.035,1.182,7.458,7.458,0,0,0-4.035-1.182,7.551,7.551,0,0,0-1.251.11.568.568,0,1,0,.2,1.118,6.283,6.283,0,0,1,4.755,1.1.576.576,0,0,0,.669,0,6.283,6.283,0,0,1,4.755-1.1.568.568,0,1,0,.2-1.118Z" transform="translate(-1.987 -1.87)" fill="#9fa1a7"></path></svg> 