<svg xmlns="http://www.w3.org/2000/svg" xmlns:xlink="http://www.w3.org/1999/xlink" width="32" height="32" viewBox="0 0 32 32">
  <defs>
    <clipPath id="clip-path">
      <rect id="Rectangle_3510" data-name="Rectangle 3510" width="32" height="32" fill="none" stroke="#707070" stroke-width="1"/>
    </clipPath>
  </defs>
  <g id="Mask_Group_4901" data-name="Mask Group 4901" clip-path="url(#clip-path)">
    <path id="Path_11376" data-name="Path 11376" d="M216.46,3.678a14.717,14.717,0,1,1-14.717,14.717A14.717,14.717,0,0,1,216.46,3.678" transform="translate(-200.743 -2.395)" fill="#ededed"/>
    <path id="Path_11422" data-name="Path 11422" d="M213.021,3.678a11.278,11.278,0,1,1-11.278,11.278A11.278,11.278,0,0,1,213.021,3.678" transform="translate(-197.305 1.044)" fill="#f7f7f7"/>
    <path id="Path_11379" data-name="Path 11379" d="M1.035,24.26a.838.838,0,0,1-.987-.611h0a.734.734,0,0,1-.016-.135L0,20.989V.771A.771.771,0,0,1,.775,0h.89a.773.773,0,0,1,.783.765V13h.961a.771.771,0,0,1,.769.771v4.27c0,3.464-1.341,5.8-3.14,6.224" transform="translate(13.081 27.774) rotate(180)" fill="#80d0fd"/>
    <path id="Path_11378" data-name="Path 11378" d="M6.414,5.623a3.676,3.676,0,0,1-2,3.412l-.059.03V22.949a.743.743,0,0,1-.733.75H2.791a.74.74,0,0,1-.733-.747h0V9.067l-.032-.016A3.664,3.664,0,0,1,0,5.628L.1.64A.642.642,0,0,1,.741,0H1.3a.011.011,0,0,1,.011.012l.13,5.905a.507.507,0,0,0,.514.5h0a.438.438,0,0,0,.075-.008.533.533,0,0,0,.4-.522L2.558.012A.014.014,0,0,1,2.572,0h1.26a.011.011,0,0,1,.011.011l.13,5.905a.507.507,0,0,0,.514.5h0a.473.473,0,0,0,.075-.008.533.533,0,0,0,.409-.523L5.1.011A.012.012,0,0,1,5.114,0H5.68a.643.643,0,0,1,.634.636Z" transform="translate(16.103 4.075)" fill="#a6defe"/>
  </g>
</svg>
