<svg xmlns="http://www.w3.org/2000/svg" xmlns:xlink="http://www.w3.org/1999/xlink" width="32" height="32" viewBox="0 0 32 32">
  <defs>
    <clipPath id="clip-path">
      <rect id="Rectangle_3516" data-name="Rectangle 3516" width="32" height="32" transform="translate(1 1.488)" fill="none" stroke="#707070" stroke-width="1"/>
    </clipPath>
  </defs>
  <g id="Mask_Group_4900" data-name="Mask Group 4900" transform="translate(-1 -1.488)" clip-path="url(#clip-path)">
    <g id="Group_5459" data-name="Group 5459" transform="translate(15.8 4.336)">
      <path id="Path_11402" data-name="Path 11402" d="M678.4,48.617c-.051.348-1.342.446-2.879.216s-2.743-.7-2.691-1.043,1.339-.447,2.878-.216,2.743.7,2.691,1.043" transform="translate(-668.819 -43.202)" fill="#ededed"/>
      <path id="Path_11403" data-name="Path 11403" d="M677.677,47.4a5.209,5.209,0,0,1-3.517-.52l.62-4.166a.64.64,0,0,1,.727-.539l.342.052a2.564,2.564,0,0,1,2.159,2.911Z" transform="translate(-669.08 -42.17)" fill="#23adf8"/>
      <path id="Path_11404" data-name="Path 11404" d="M676.191,69.01l-8.345-1.24.542-3.652a4.218,4.218,0,0,1,8.345,1.241Z" transform="translate(-667.846 -45.757)" fill="#e0e0e0"/>
      <path id="Path_11405" data-name="Path 11405" d="M676.08,61.23l-5.569-.827,1.851-12.514a6.659,6.659,0,0,0,5.568.827Z" transform="translate(-668.367 -43.288)" fill="#e0e0e0"/>
      <path id="Path_11406" data-name="Path 11406" d="M667.848,69.078a14.184,14.184,0,0,0,8.345,1.24l.28-1.879a15.131,15.131,0,0,1-8.345-1.24Z" transform="translate(-667.846 -47.063)" fill="#bcbcbc"/>
    </g>
    <path id="Path_11401" data-name="Path 11401" d="M18.639,25.073,13.318,12.687l0,0L8.544,1.577a2.536,2.536,0,0,0-3.3-1.39L1.5,1.791A2.519,2.519,0,0,0,.114,4.846l5.5-2.361.041-.018a.574.574,0,0,1,.408,1.073L1.008,5.712a.526.526,0,1,0,.42.965L6.483,4.506a.6.6,0,0,1,.086-.026.574.574,0,0,1,.34,1.09L1.883,7.732A.527.527,0,1,0,2.3,8.7L7.359,6.527A.594.594,0,0,1,7.444,6.5a.573.573,0,0,1,.339,1.09L2.754,9.755a.526.526,0,1,0,.42.965L8.23,8.549a.546.546,0,0,1,.083-.026A.572.572,0,0,1,8.655,9.61L3.629,11.772a.526.526,0,0,0,.419.965L9.1,10.566a.542.542,0,0,1,.085-.026.564.564,0,0,1,.676.426.571.571,0,0,1-.336.664L4.5,13.791a.526.526,0,1,0,.42.965l5.055-2.171a.582.582,0,0,1,.085-.027.573.573,0,0,1,.339,1.09L5.376,15.81a.526.526,0,0,0,.419.964l5.027-2.163a.572.572,0,0,1,.713.213.5.5,0,0,1,.043.077.566.566,0,0,1-.276.751L5.788,18.008a2.517,2.517,0,0,0,3.16,1.116l3-1.287,3.665,8.535A1.683,1.683,0,0,0,17.8,27.3h0a1.682,1.682,0,0,0,.837-2.226" transform="matrix(0.996, 0.087, -0.087, 0.996, 5.358, 2.987)" fill="#80d0fd"/>
  </g>
</svg>
