<svg xmlns="http://www.w3.org/2000/svg" xmlns:xlink="http://www.w3.org/1999/xlink" width="32" height="32" viewBox="0 0 32 32">
  <defs>
    <clipPath id="clip-path">
      <rect id="Rectangle_3568" data-name="Rectangle 3568" width="32" height="32" fill="none"/>
    </clipPath>
  </defs>
  <g id="Group_6138" data-name="Group 6138" transform="translate(0 0)">
    <g id="Group_5544" data-name="Group 5544" transform="translate(0 0)" clip-path="url(#clip-path)">
      <path id="Path_11707" data-name="Path 11707" d="M231.857,35.566h3.532l.565-2.811a9.407,9.407,0,0,0,2.355-1.034l2.451,1.622,2.5-2.5-1.682-2.534a9.066,9.066,0,0,0,.9-2.234l3-.6v-3.53l-3-.6a9.108,9.108,0,0,0-.916-2.234l1.692-2.534-2.5-2.5L238.3,15.707a9.419,9.419,0,0,0-2.355-1.045l-.565-2.811h-3.532l-.54,2.68a9.476,9.476,0,0,0-2.619,1.009l-2.21-1.466-2.5,2.5L225.4,18.7a9.338,9.338,0,0,0-1.178,2.75l-2.463.493v3.531l2.463.493a8.909,8.909,0,0,0,1.178,2.75l-1.417,2.126,2.5,2.5,2.21-1.466a9.472,9.472,0,0,0,2.619,1.009Zm-3.584-11.857a5.084,5.084,0,1,1,5.084,5.084,5.084,5.084,0,0,1-5.084-5.084" transform="translate(-214.428 -8.031)" fill="#e0e0e0"/>
      <path id="Path_11708" data-name="Path 11708" d="M230.719,88.694l-3.478.4a.577.577,0,0,1-.64-.507l-.1-.868a.578.578,0,0,1,.508-.64l3.478-.4a.578.578,0,0,1,.64.507l.1.868a.578.578,0,0,1-.507.64" transform="translate(-217.638 -58.733)" fill="#80d0fd"/>
      <path id="Path_11709" data-name="Path 11709" d="M207.086,8.81a9.165,9.165,0,0,0-3.721,16.72c1.679,1.108,2.634,1.943,2.865,3.941a2.343,2.343,0,0,0,2.6,2.058l2.294-.265a2.343,2.343,0,0,0,2.058-2.6h0c-.234-2.022.551-3.051,1.938-4.541a9.165,9.165,0,0,0-8.03-15.317" transform="translate(-199.171 -5.904)" fill="#80d0fd"/>
      <path id="Path_11710" data-name="Path 11710" d="M224.945,24.538a7.12,7.12,0,0,0-8.132-7.616,7.018,7.018,0,0,0-2.142.675,6.247,6.247,0,0,1,10.274,6.941" transform="translate(-209.625 -10.471)" fill="#fff"/>
      <path id="Path_11711" data-name="Path 11711" d="M229.447,83.445l-4.758.55a.578.578,0,0,1-.64-.507l-.1-.868a.578.578,0,0,1,.507-.64l4.758-.55a.578.578,0,0,1,.64.507l.1.868a.578.578,0,0,1-.507.64" transform="translate(-215.91 -55.176)" fill="#23adf8"/>
    </g>
  </g>
</svg>
