<svg xmlns="http://www.w3.org/2000/svg" xmlns:xlink="http://www.w3.org/1999/xlink" width="32" height="32" viewBox="0 0 32 32">
  <defs>
    <clipPath id="clip-path">
      <rect id="Rectangle_3558" data-name="Rectangle 3558" width="32" height="32" transform="translate(923 1169)" fill="none" stroke="#707070" stroke-width="1"/>
    </clipPath>
  </defs>
  <g id="Mask_Group_4919" data-name="Mask Group 4919" transform="translate(-923 -1169)" clip-path="url(#clip-path)">
    <g id="Group_5567" data-name="Group 5567" transform="translate(925.637 1170.955)">
      <path id="Path_11679" data-name="Path 11679" d="M1415.466,26.158V46.118a2.568,2.568,0,0,0,2.568,2.568h15.292l5.965,4.042a.815.815,0,0,0,1.272-.674v-25.9a2.568,2.568,0,0,0-2.569-2.568h-19.96a2.568,2.568,0,0,0-2.568,2.568" transform="translate(-1415.466 -23.59)" fill="#ededed"/>
      <path id="Path_11681" data-name="Path 11681" d="M1439.376,31.785a4.621,4.621,0,0,1,1.445,3.595,4.293,4.293,0,0,1-1.5,3.571,6.224,6.224,0,0,1-3.994,1.2L1435.23,42H1432.9l-.118-3.688h.776a7.933,7.933,0,0,0,3.489-.611,2.357,2.357,0,0,0,1.21-2.326,2.609,2.609,0,0,0-.717-1.95,2.706,2.706,0,0,0-1.985-.7,2.808,2.808,0,0,0-2,.681,2.479,2.479,0,0,0-.728,1.9h-2.514a4.952,4.952,0,0,1,.635-2.514,4.329,4.329,0,0,1,1.821-1.715,5.949,5.949,0,0,1,2.76-.611,5.488,5.488,0,0,1,3.841,1.315M1432.81,46.7a1.715,1.715,0,0,1,1.222-2.937,1.632,1.632,0,0,1,1.2.494,1.76,1.76,0,0,1,0,2.443,1.632,1.632,0,0,1-1.2.493,1.659,1.659,0,0,1-1.222-.493" transform="translate(-1422.392 -26.025)" fill="#23adf8"/>
      <g id="Group_5566" data-name="Group 5566" transform="translate(16.799 8.925)">
        <path id="Path_11742" data-name="Path 11742" d="M658.752,33a1.85,1.85,0,0,1-2.608-.162l-1.876-2.124-.6,1.014a1.46,1.46,0,0,1-2.65-.3l-3.067-9.672a1.46,1.46,0,0,1,2-1.768l9.219,4.239a1.458,1.458,0,0,1-.03,2.666l-1.081.466,1.876,2.124a1.849,1.849,0,0,1-.162,2.608Z" transform="translate(-647.885 -19.85)" fill="#fff"/>
        <path id="Path_11743" data-name="Path 11743" d="M660.858,26.932l-9.218-4.239a.693.693,0,0,0-.949.838l3.066,9.672a.693.693,0,0,0,1.256.141l1.133-1.927,2.577,2.918a1.08,1.08,0,0,0,1.524.095h0l1.026-.906A1.08,1.08,0,0,0,661.367,32l-2.576-2.918,2.052-.886a.692.692,0,0,0,.015-1.265" transform="translate(-649.889 -21.859)" fill="#80d0fd"/>
      </g>
    </g>
  </g>
</svg>
