<svg xmlns="http://www.w3.org/2000/svg" xmlns:xlink="http://www.w3.org/1999/xlink" width="32" height="32" viewBox="0 0 32 32">
  <defs>
    <clipPath id="clip-path">
      <rect id="Rectangle_3569" data-name="Rectangle 3569" width="32" height="32" transform="translate(387 215)" fill="#fff" stroke="#707070" stroke-width="1" opacity="0.707"/>
    </clipPath>
    <clipPath id="clip-path-2">
      <rect id="Rectangle_3509" data-name="Rectangle 3509" width="31" height="32" transform="translate(0.164 -0.156)" fill="none"/>
    </clipPath>
  </defs>
  <g id="Mask_Group_4902" data-name="Mask Group 4902" transform="translate(-387 -215)" clip-path="url(#clip-path)">
    <g id="Group_5448" data-name="Group 5448" transform="translate(387.836 215.156)">
      <g id="Group_5447" data-name="Group 5447" transform="translate(0 0)" clip-path="url(#clip-path-2)">
        <path id="Path_11370" data-name="Path 11370" d="M32.029,27.673a7.407,7.407,0,0,1-7.35,7.464h-.041A7.329,7.329,0,0,1,20.3,33.695a.039.039,0,0,0-.036,0,13.687,13.687,0,0,1-4.915.911v-.013q-.443,0-.868-.036a13.7,13.7,0,0,1-9.8-4.684.032.032,0,0,0-.019-.012c-1.7-.513-2.054.171-1.852-2.3a.016.016,0,0,1,0-.009l4.42-15.062a.538.538,0,0,1,.3-.34l2.492-1.109,4.225-2.018a.537.537,0,0,1,.657.148l2.309,2.949a.539.539,0,0,1-.008.678L14.32,16.274a.54.54,0,0,1-.835,0l-.813-.993a.036.036,0,0,0-.041-.013l-1.079.48a.04.04,0,0,0-.022.036l.259,7.011a.036.036,0,0,0,.037.036.037.037,0,0,0,.02-.006,6.386,6.386,0,0,1,7.146.214.038.038,0,0,0,.05,0A7.359,7.359,0,0,1,32.03,27.671Z" transform="translate(-1.767 -6.489)" fill="#5ec3fc"/>
        <path id="Path_11371" data-name="Path 11371" d="M31.921,65.721c.1,4-3.666,6.6-7.056,6.581A7.333,7.333,0,0,1,20.53,70.86c-.011,0-.028-.013-.036,0-3.1,2.609-11.925,1.4-15.311-2.307-.344-.38-2.244.216-2.421-.972.083,1.478.192.934,1.9,1.447a.032.032,0,0,1,.019.012,13.681,13.681,0,0,0,9.805,4.674q.43.027.868.036v.013a13.7,13.7,0,0,0,4.915-.911.04.04,0,0,1,.036,0A7.332,7.332,0,0,0,24.63,74.3a7.407,7.407,0,0,0,7.392-7.423v-.041Z" transform="translate(-1.769 -45.658)" fill="#23adf8"/>
        <path id="Path_11373" data-name="Path 11373" d="M25.355,17.354a4.518,4.518,0,1,1-4.518,4.517,4.517,4.517,0,0,1,4.518-4.517" transform="translate(-14.245 -12.275)" fill="#bcbcbc"/>
        <path id="Path_11374" data-name="Path 11374" d="M25.352,17.361a4.515,4.515,0,1,1-4.515,4.515v0a4.515,4.515,0,0,1,4.515-4.515" transform="translate(-14.245 -12.276)" fill="#e0e0e0"/>
        <path id="Path_11375" data-name="Path 11375" d="M31.528,26.31a1.746,1.746,0,1,1-1.746,1.746,1.746,1.746,0,0,1,1.746-1.746" transform="translate(-20.418 -18.456)" fill="#bcbcbc"/>
      </g>
    </g>
  </g>
</svg>
