<svg xmlns="http://www.w3.org/2000/svg" xmlns:xlink="http://www.w3.org/1999/xlink" width="32" height="32" viewBox="0 0 32 32">
  <defs>
    <clipPath id="clip-path">
      <rect id="Rectangle_3514" data-name="Rectangle 3514" width="32" height="32" transform="translate(0 0)" fill="none"/>
    </clipPath>
  </defs>
  <g id="Group_5452" data-name="Group 5452" transform="translate(-0.07 -0.126)">
    <g id="Group_5451" data-name="Group 5451" transform="translate(0.07 0.126)" clip-path="url(#clip-path)">
      <path id="Path_11387" data-name="Path 11387" d="M427.811,80.493v1.578l.884.51-1.9,3.295a.9.9,0,0,1-1.223.338l-.014-.008a.906.906,0,0,1-.329-1.236Z" transform="translate(-416.742 -56.34)" fill="#23adf8"/>
      <path id="Path_11383" data-name="Path 11383" d="M433.64,27.929l8.768,5.063-6.755,11.694a1.981,1.981,0,0,1-2.7.731h0l-5.33-3.086a1.982,1.982,0,0,1-.728-2.707h0Z" transform="translate(-418.776 -18.795)" fill="#a6defe"/>
      <path id="Path_11384" data-name="Path 11384" d="M450.717,38.791l2.765,1.586-6.755,11.7a1.982,1.982,0,0,1-2.707.731h0l-1.117-.654" transform="translate(-429.848 -26.183)" fill="#80d0fd"/>
      <path id="Path_11385" data-name="Path 11385" d="M446.486,20.707h0a1.332,1.332,0,0,1,1.819-.49l0,0,8.872,5.122a1.334,1.334,0,0,1-1.333,2.312l-8.878-5.125a1.332,1.332,0,0,1-.491-1.819l0,0" transform="translate(-432.159 -13.428)" fill="#5ec3fc"/>
      <rect id="Rectangle_3513" data-name="Rectangle 3513" width="5.429" height="5.429" transform="translate(18.234 7.994) rotate(-60.001)" fill="#ededed"/>
      <path id="Path_11386" data-name="Path 11386" d="M429.592,73.012l4.7,2.715-.514.889a1.2,1.2,0,0,1-1.632.439h0l-2.623-1.518a1.2,1.2,0,0,1-.439-1.631Z" transform="translate(-420.34 -49.46)" fill="#80d0fd"/>
      <path id="Path_11388" data-name="Path 11388" d="M466.3,4.111l5.5,3.175a.851.851,0,0,1-.855,1.472l-5.5-3.168a.852.852,0,0,1,.851-1.476" transform="translate(-444.902 -2.524)" fill="#bcbcbc"/>
      <path id="Path_11389" data-name="Path 11389" d="M435.226,35.988l2.749,1.588a.452.452,0,0,1-.452.784l-2.749-1.583Zm-1.759,3.05-.454.784,2.749,1.588a.453.453,0,0,0,.617-.167.463.463,0,0,0-.167-.618Zm-1.76,3.046-.454.792L434,44.463a.452.452,0,0,0,.451-.784Z" transform="translate(-421.923 -24.277)" fill="#fff"/>
    </g>
  </g>
</svg>
