<svg xmlns="http://www.w3.org/2000/svg" width="38.604" height="38.66" xmlns:v="https://vecta.io/nano"><defs><clipPath id="A"><path fill="none" d="M0 0h38.604v38.66H0z"/></clipPath></defs><g clip-path="url(#A)"><path d="M1.154 19.325c0-10.029 8.131-18.16 18.16-18.16s18.16 8.131 18.16 18.16-8.131 18.16-18.16 18.16a18.16 18.16 0 0 1-18.16-18.16" fill="#fff"/><g fill="#23adf8"><path d="M38.6 19.3c.024 10.659-8.597 19.319-19.256 19.344S.024 30.046 0 19.387 8.597.068 19.256.043 38.576 8.641 38.6 19.3M28.288 30.033v-.825q0-8.5 0-17a2.39 2.39 0 0 0-2.538-2.5q-6.416-.018-12.833 0a2.37 2.37 0 0 0-2.559 2.63q-.013 6.417 0 12.833c0 1.8.862 2.669 2.644 2.677h9.522zm-8.996-4.54c-1.191.009-2.377-.16-3.519-.5a8.8 8.8 0 0 1-1.733-.732l-.658-.372c-.427-.28-.836-.638-.513-1.171.354-.584.837-.237 1.253 0a10.02 10.02 0 0 0 10.5 0c.376-.208.781-.552 1.115-.048.538.815-.68 1.333-1.24 1.621-.819.421-1.692.731-2.593.921a12.91 12.91 0 0 1-2.616.275"/></g></g></svg>