<svg xmlns="http://www.w3.org/2000/svg" width="10.67" height="19.325" viewBox="0 0 10.67 19.325">
  <path id="Path_4916" data-name="Path 4916" d="M-4307.385,2587.765v3.242h-.568c-.508,0-1.017,0-1.525,0a1.01,1.01,0,0,0-1.139,1.056c-.03.7-.008,1.41-.008,2.114a.342.342,0,0,0,.027.081h3.212v3.251h-3.239v7.564h-3.252v-7.566h-.72c-.431,0-.861,0-1.292,0-.092,0-.167,0-.167-.129,0-1.028,0-2.056,0-3.109h2.175c0-.106,0-.188,0-.27,0-.881-.013-1.762.014-2.643a3.8,3.8,0,0,1,2.721-3.434,4.531,4.531,0,0,1,1.062-.162c.854-.023,1.709-.008,2.564-.007C-4307.478,2587.755-4307.437,2587.761-4307.385,2587.765Z" transform="translate(4317.056 -2586.751)" fill="none" stroke="#fff" stroke-linecap="round" stroke-linejoin="round" stroke-width="2"/>
</svg>
