<svg xmlns="http://www.w3.org/2000/svg" xmlns:xlink="http://www.w3.org/1999/xlink" width="32" height="32" viewBox="0 0 32 32">
  <defs>
    <clipPath id="clip-path">
      <rect id="Rectangle_3555" data-name="Rectangle 3555" width="32" height="32" fill="none"/>
    </clipPath>
    <clipPath id="clip-path-2">
      <rect id="Rectangle_3554" data-name="Rectangle 3554" width="16.749" height="12.745" fill="none"/>
    </clipPath>
  </defs>
  <g id="Group_6137" data-name="Group 6137" transform="translate(0 0)">
    <g id="Group_5527" data-name="Group 5527" transform="translate(0 0)" clip-path="url(#clip-path)">
      <path id="Path_11656" data-name="Path 11656" d="M649.573,13.312H633.159a.4.4,0,0,1-.406-.386V4.061a.4.4,0,0,1,.406-.386h16.414a.4.4,0,0,1,.406.386v8.866a.4.4,0,0,1-.406.386" transform="translate(-625.18 -0.882)" fill="#f7f7f7"/>
      <path id="Path_11658" data-name="Path 11658" d="M626.517,24.242H603.245a.546.546,0,0,1-.576-.511V11.989a.546.546,0,0,1,.576-.511h23.272a.546.546,0,0,1,.576.511V23.731a.546.546,0,0,1-.576.511" transform="translate(-599.24 -5.687)" fill="#ededed"/>
      <path id="Path_11660" data-name="Path 11660" d="M597.5,25.875h30.136a.736.736,0,0,1,.746.726V43.3a.736.736,0,0,1-.746.726H597.5a.736.736,0,0,1-.746-.726V26.6a.736.736,0,0,1,.746-.726" transform="translate(-596.384 -15.493)" fill="#a6defe"/>
      <g id="Group_5526" data-name="Group 5526" transform="translate(3.433 13.323)" style="mix-blend-mode: normal;isolation: isolate">
        <g id="Group_5525" data-name="Group 5525">
          <g id="Group_5524" data-name="Group 5524" clip-path="url(#clip-path-2)">
            <path id="Path_11661" data-name="Path 11661" d="M606.249,47.307V35.434a.436.436,0,0,1,.436-.436h15.877a.436.436,0,0,1,.436.436V47.307a.436.436,0,0,1-.436.436H606.685a.436.436,0,0,1-.436-.436" transform="translate(-606.249 -34.998)" fill="#fff"/>
          </g>
        </g>
      </g>
      <path id="Path_11662" data-name="Path 11662" d="M666.772,59.954h5.243a.588.588,0,1,1,0,1.175h-5.243a.588.588,0,1,1,0-1.175" transform="translate(-643.431 -38.586)" fill="#fff"/>
      <path id="Path_11663" data-name="Path 11663" d="M666.869,66.371h5.243a.588.588,0,0,1,0,1.175h-5.243a.588.588,0,0,1,0-1.175" transform="translate(-643.496 -42.934)" fill="#fff"/>
      <path id="Path_11664" data-name="Path 11664" d="M670.722,39.15a2.65,2.65,0,1,1-2.65,2.65,2.65,2.65,0,0,1,2.65-2.65" transform="translate(-644.71 -24.488)" fill="#fff"/>
      <path id="Path_11665" data-name="Path 11665" d="M615.84,37.884a1.361,1.361,0,1,1-1.361,1.361,1.361,1.361,0,0,1,1.361-1.361" transform="translate(-608.393 -23.63)" fill="#5ec3fc"/>
      <path id="Path_11666" data-name="Path 11666" d="M606.265,52.8l1.743-1.439a.583.583,0,0,1,.821.078l.017.022,5.437,7.26h-7.547a.471.471,0,0,1-.471-.471Z" transform="translate(-602.827 -32.673)" fill="#23adf8"/>
      <path id="Path_11667" data-name="Path 11667" d="M606.239,51.977l10.793-8.457a.583.583,0,0,1,.819-.091.557.557,0,0,1,.046.041l5.112,5.054v4.394a.454.454,0,0,1-.454.454H606.693a.454.454,0,0,1-.454-.454Z" transform="translate(-602.81 -27.302)" fill="#5ec3fc"/>
    </g>
  </g>
</svg>
