<svg xmlns="http://www.w3.org/2000/svg" width="19.318" height="19.319" fill="none" stroke="#fff" stroke-linejoin="round" stroke-width="2" xmlns:v="https://vecta.io/nano"><path d="M9.679.996q-2.292 0-4.583 0c-.48-.011-.959.061-1.414.213-1.639.552-2.726 2.111-2.676 3.84l.007 9.206a4.45 4.45 0 0 0 .215 1.369 3.89 3.89 0 0 0 3.826 2.684l9.207-.008a4.46 4.46 0 0 0 1.37-.212c1.642-.527 2.738-2.076 2.688-3.8q.017-4.634 0-9.267c.033-1.314-.6-2.556-1.683-3.3-.701-.494-1.543-.747-2.4-.721q-2.276.004-4.557-.004z"/><path d="M9.664 6.07c-1.981.001-3.587 1.605-3.591 3.586s1.605 3.588 3.586 3.591 3.587-1.605 3.591-3.586-1.605-3.588-3.586-3.591z"/></svg>