<svg xmlns="http://www.w3.org/2000/svg" xmlns:xlink="http://www.w3.org/1999/xlink" width="32" height="32" viewBox="0 0 32 32">
  <defs>
    <clipPath id="clip-path">
      <rect id="Rectangle_3556" data-name="Rectangle 3556" width="32" height="32" fill="none"/>
    </clipPath>
  </defs>
  <g id="Group_6136" data-name="Group 6136" transform="translate(0 0)">
    <g id="Group_5529" data-name="Group 5529" transform="translate(0 0)" clip-path="url(#clip-path)">
      <path id="Path_11668" data-name="Path 11668" d="M275.126,49.652a9.509,9.509,0,0,1-1.354-3.528,9.879,9.879,0,0,1-1.4,3.624,6.4,6.4,0,0,1-2.717,2.015,6.127,6.127,0,0,1,2.851,2.213,10.1,10.1,0,0,1,1.406,3.619,10.511,10.511,0,0,1,1.54-3.579,6.426,6.426,0,0,1,2.578-2.061,6.57,6.57,0,0,1-2.9-2.3" transform="translate(-246.728 -31.575)" fill="#5ec3fc"/>
      <path id="Path_11669" data-name="Path 11669" d="M258.492,73.976a5.9,5.9,0,0,1-.841-2.192,6.138,6.138,0,0,1-.871,2.252,3.975,3.975,0,0,1-1.688,1.252,3.81,3.81,0,0,1,1.771,1.375,6.27,6.27,0,0,1,.874,2.248,6.534,6.534,0,0,1,.957-2.224,3.994,3.994,0,0,1,1.6-1.28,4.082,4.082,0,0,1-1.8-1.43" transform="translate(-236.86 -48.963)" fill="#e0e0e0"/>
      <path id="Path_11670" data-name="Path 11670" d="M213.867,19a9.382,9.382,0,0,1-1.336-3.481,9.745,9.745,0,0,1-1.382,3.575,6.315,6.315,0,0,1-2.68,1.988,6.05,6.05,0,0,1,2.813,2.183,9.967,9.967,0,0,1,1.387,3.57,10.376,10.376,0,0,1,1.519-3.531,6.342,6.342,0,0,1,2.543-2.033A6.478,6.478,0,0,1,213.866,19" transform="translate(-205.266 -10.838)" fill="#ededed"/>
      <path id="Path_11671" data-name="Path 11671" d="M255.144,4.165a13.654,13.654,0,0,1,2.7-.518.467.467,0,0,1,.254.024c.173.085.16.326.124.513a19.1,19.1,0,0,0-.386,2.63,26.214,26.214,0,0,1-.126,3.653,5.846,5.846,0,0,1-1.554,2.931,3.52,3.52,0,0,1-2.743,1.25,4.43,4.43,0,0,1-1.354-.562,6.1,6.1,0,0,1-2.442-1.547,2.941,2.941,0,0,1-.436-1.773,6.83,6.83,0,0,1,2.9-5.094,10.032,10.032,0,0,1,3.069-1.508" transform="translate(-232.846 -2.785)" fill="#a6defe"/>
      <path id="Path_11672" data-name="Path 11672" d="M243.24,30.987a.671.671,0,0,1,.429.1l3.145,1.546a.571.571,0,0,1,.281.222.552.552,0,0,1,.019.333q-.223,1.5-.594,2.976-.188.754-.412,1.5c-.142.477-.19.879-.775.587l-5.706-2.841c-.111-.055-.24-.14-.226-.262a.321.321,0,0,1,.1-.165q1.708-1.919,3.464-3.8a.637.637,0,0,1,.247-.189l.032-.009" transform="translate(-226.226 -21.316)" fill="#e0e0e0"/>
      <path id="Path_11673" data-name="Path 11673" d="M219.443,61.128a2.1,2.1,0,0,0,2.408-.444q.8-.833,1.559-1.693a59.043,59.043,0,0,0,8.36-13.065.268.268,0,0,0-.056-.386.288.288,0,0,0-.1-.044l-6.106-3.032a.392.392,0,0,0-.536.05.378.378,0,0,0-.081.151A59.071,59.071,0,0,0,218.4,59.075a1.874,1.874,0,0,0,1.045,2.052" transform="translate(-211.971 -29.039)" fill="#80d0fd"/>
      <path id="Path_11674" data-name="Path 11674" d="M257.509,1.354a8.128,8.128,0,0,0-4.776,3.8c-.68,1.135,1.021-.261,2.621-.371,3.753-.257,2.747,6.8,4.225,5.59a3.836,3.836,0,0,0,.837-2.1,28,28,0,0,0,.035-3.9q.043-.846.152-1.689c.06-.465.691-1.862-.216-1.84a11.41,11.41,0,0,0-2.877.5" transform="translate(-235.157 -0.896)" fill="#23adf8"/>
    </g>
  </g>
</svg>
