<svg xmlns="http://www.w3.org/2000/svg" width="23.021" height="19.333" viewBox="0 0 23.021 19.333">
  <path id="Path_4915" data-name="Path 4915" d="M-4156.539,2593.461a2.587,2.587,0,0,0,.722-1.385,13.1,13.1,0,0,1-2.3.889.61.61,0,0,1-.629-.156,4.24,4.24,0,0,0-4.1-.982,4.35,4.35,0,0,0-3.162,4.855c.029.179.106.371-.226.341a12.476,12.476,0,0,1-7.036-2.865,15.589,15.589,0,0,1-1.687-1.685,4.334,4.334,0,0,0-.483,3.149,4.574,4.574,0,0,0,1.79,2.682,4.706,4.706,0,0,1-1.674-.421c-.227-.107-.282-.034-.258.188a4.359,4.359,0,0,0,2.8,3.821c.172.072.349.132.588.222a4.731,4.731,0,0,1-1.847.078,4.292,4.292,0,0,0,1.012,1.677,4.412,4.412,0,0,0,3.046,1.347,8.966,8.966,0,0,1-6.3,1.827c.041.068.048.095.066.107.075.052.152.1.232.148a12.5,12.5,0,0,0,8.667,1.472,11.345,11.345,0,0,0,6.456-3.449,12.583,12.583,0,0,0,3.552-9.039.539.539,0,0,1,.249-.488,6.95,6.95,0,0,0,1.2-1.133,2.306,2.306,0,0,0,.6-.85,10.3,10.3,0,0,1-2.261.546A4.685,4.685,0,0,0-4156.539,2593.461Z" transform="translate(4177.285 -2590.655)" fill="none" stroke="#fff" stroke-linecap="round" stroke-linejoin="round" stroke-width="2"/>
</svg>
