<svg xmlns="http://www.w3.org/2000/svg" xmlns:xlink="http://www.w3.org/1999/xlink" width="32" height="32" viewBox="0 0 32 32">
  <defs>
    <clipPath id="clip-path">
      <rect id="Rectangle_3571" data-name="Rectangle 3571" width="32" height="32" transform="translate(388 269)" fill="#fff" stroke="#707070" stroke-width="1" opacity="0.697"/>
    </clipPath>
    <clipPath id="clip-path-2">
      <rect id="Rectangle_3518" data-name="Rectangle 3518" width="33.067" height="32" transform="translate(0 0)" fill="none"/>
    </clipPath>
  </defs>
  <g id="Mask_Group_4921" data-name="Mask Group 4921" transform="translate(-388 -269)" clip-path="url(#clip-path)">
    <g id="Group_5458" data-name="Group 5458" transform="translate(388.001 269)">
      <g id="Group_5457" data-name="Group 5457" transform="translate(0 0)" clip-path="url(#clip-path-2)">
        <path id="Path_11415" data-name="Path 11415" d="M22.211,9.672,18.46,26.455a1.043,1.043,0,0,1-1.237.78l-.024-.006L.805,23.543a1.014,1.014,0,0,1-.783-1.2h0v-.017l0-.021L5.125.8A1.043,1.043,0,0,1,6.363.024l.022,0L18.3,2.715Z" transform="matrix(0.996, -0.087, 0.087, 0.996, 6.209, 3.505)" fill="#ededed"/>
        <path id="Path_11416" data-name="Path 11416" d="M1.15,0,.025,4.594A1.252,1.252,0,0,0,.93,6.05l4.125.912" transform="matrix(0.996, -0.087, 0.087, 0.996, 23.451, 4.68)" fill="#e0e0e0"/>
        <path id="Path_11417" data-name="Path 11417" d="M1015.584,38.156l-14.611,3.2a1.183,1.183,0,0,1-1.428-.862L996.513,26.67a1.183,1.183,0,0,1,.939-1.379l14.61-3.2a1.184,1.184,0,0,1,1.429.861l3.032,13.829a1.183,1.183,0,0,1-.937,1.38" transform="translate(-996.522 -17.13)" fill="#a6defe"/>
        <path id="Path_11418" data-name="Path 11418" d="M1022.929,48.6l-10.6,2.321a.133.133,0,0,1-.146-.116.129.129,0,0,1,.014-.067l1.25-2.743a.071.071,0,0,1,.091-.031l.014.008,1.536,1.413a.251.251,0,0,0,.343.009.241.241,0,0,0,.062-.085l2.366-4.859a.121.121,0,0,1,.155-.053.105.105,0,0,1,.023.014l4.93,3.961a.126.126,0,0,1,.032.176l0,.006-.006.007a.143.143,0,0,1-.059.042" transform="translate(-1005.974 -30.581)" fill="#23adf8"/>
        <path id="Path_11419" data-name="Path 11419" d="M1010.877,36.69a2.329,2.329,0,0,1-1.851,2.722,2.266,2.266,0,0,1-1.209-4.368,2.205,2.205,0,0,1,.237-.052,2.33,2.33,0,0,1,2.822,1.7" transform="translate(-1002.343 -24.882)" fill="#fff"/>
        <path id="Path_11420" data-name="Path 11420" d="M1066.013,52.6a4.546,4.546,0,1,1-4.546,4.546,4.546,4.546,0,0,1,4.546-4.546" transform="translate(-1039.004 -34.04)" fill="#5ec3fc"/>
        <path id="Path_11421" data-name="Path 11421" d="M1074.726,61.458l-2.471-1.426a.695.695,0,0,0-1.042.6v2.852a.695.695,0,0,0,1.042.6l2.471-1.424a.7.7,0,0,0,0-1.2" transform="translate(-1045.53 -38.954)" fill="#fff"/>
      </g>
    </g>
  </g>
</svg>
