<svg xmlns="http://www.w3.org/2000/svg" viewBox="0 0 345.35 48.15"><defs><style>.cls-1{fill:#130c0e;}</style></defs><g id="Layer_2" data-name="Layer 2"><g id="Layer_1-2" data-name="Layer 1"><path class="cls-1" d="M62.78,46.13,40.31,1.07a1.93,1.93,0,0,0-3.46,0L31.47,11.86,26.09,1.07a1.94,1.94,0,0,0-3.47,0L.15,46.13a1.4,1.4,0,0,0,1.24,2h19.1a2.45,2.45,0,0,0,2.2-1.37L24,44.07H38.88l1.36,2.71a2.46,2.46,0,0,0,2.21,1.37H61.54A1.39,1.39,0,0,0,62.78,46.13ZM17,42.05a1.39,1.39,0,0,1-1.25.77H9.93A1,1,0,0,1,9,41.36L23.68,12a1,1,0,0,1,1.76,0l2.79,5.59a2.2,2.2,0,0,1,0,1.94Zm30.1.77a1.4,1.4,0,0,1-1.25-.77L34.7,19.51a2.2,2.2,0,0,1,0-1.94L37.5,12a1,1,0,0,1,1.75,0L53.91,41.36a1,1,0,0,1-.9,1.46H49.76M36.55,38.15H26.39a.89.89,0,0,1-.8-1.28l5.19-10.4a.76.76,0,0,1,1.37,0l5.19,10.4A.88.88,0,0,1,36.55,38.15Z"/><polygon class="cls-1" points="106.31 21.22 95.61 6.52 87.68 6.53 87.68 41.61 94.72 41.61 94.72 16.96 105.39 31.56 106.93 31.56 117.85 17 117.85 41.61 124.89 41.61 124.89 6.52 117 6.52 106.31 21.22"/><path class="cls-1" d="M158.07,6.52h-7.53L134.8,41.61h7.63l2-4.4,19.75,0,1.95,4.36h7.68L158.14,6.67Zm3.53,24.79H147.11L154.3,14.6Z"/><polygon class="cls-1" points="206.98 28.27 190.53 6.62 190.46 6.52 184.97 6.52 184.72 6.57 184.72 41.61 191.5 41.61 191.75 41.56 191.75 19.86 208.2 41.51 208.28 41.61 213.76 41.61 214.01 41.56 214.01 6.52 206.98 6.52 206.98 28.27"/><path class="cls-1" d="M243.11,6.52H229.24V41.61h13.87c5.23,0,9.63-1.67,12.74-4.83a18.19,18.19,0,0,0,4.83-13C260.54,15.8,255.86,6.52,243.11,6.52Zm10.6,17.18a11.22,11.22,0,0,1-2.89,8.24,10.32,10.32,0,0,1-7.71,2.9h-6.89V13.15h6.89C248.09,13.15,253.49,15.92,253.71,23.7Z"/><path class="cls-1" d="M289.81,5.74c-12.42,0-18.08,9.61-18.08,18.53s5.59,18.13,18.08,18.13c12.32,0,17.93-9.13,18-18.17a18.89,18.89,0,0,0-5.18-13.49A17.58,17.58,0,0,0,289.81,5.74ZM300.9,24.32c-.09,5.6-3.06,11.59-11.09,11.59s-11-6-11.14-11.55a12.59,12.59,0,0,1,3.27-9.11,11.63,11.63,0,0,1,15.66-.06A12.68,12.68,0,0,1,300.9,24.32Z"/><polygon class="cls-1" points="345.35 13.44 345.35 6.52 318.89 6.52 318.89 41.61 345.35 41.61 345.35 34.69 325.88 34.69 325.88 27.36 344.66 27.36 344.66 20.77 325.88 20.77 325.88 13.44 345.35 13.44"/></g></g></svg>