<?xml version="1.0" encoding="UTF-8"?> <svg xmlns="http://www.w3.org/2000/svg" width="261.579" height="55.299" viewBox="0 0 261.579 55.299"><g id="Group_6767" data-name="Group 6767" transform="translate(-71.759 -529.48)"><path id="Path_12498" data-name="Path 12498" d="M19.09,7.946V24H15.87V13.558L11.569,24H9.131L4.807,13.558V24H1.587V7.946H5.244L10.35,19.883,15.456,7.946Zm2.346,9.637a7.375,7.375,0,0,1,.771-3.427,5.647,5.647,0,0,1,2.093-2.3,5.572,5.572,0,0,1,2.956-.805,5.192,5.192,0,0,1,2.5.575,5.064,5.064,0,0,1,1.714,1.449V11.258h3.243V24H31.464V22.137a4.79,4.79,0,0,1-1.714,1.484,5.243,5.243,0,0,1-2.518.587,5.415,5.415,0,0,1-2.933-.828,5.8,5.8,0,0,1-2.093-2.334A7.5,7.5,0,0,1,21.436,17.583Zm10.028.046A4.13,4.13,0,0,0,31,15.616a3.243,3.243,0,0,0-1.242-1.288,3.32,3.32,0,0,0-1.679-.448A3.234,3.234,0,0,0,25.2,15.594a4,4,0,0,0-.472,1.99A4.13,4.13,0,0,0,25.2,19.6a3.4,3.4,0,0,0,1.242,1.322,3.155,3.155,0,0,0,1.645.46,3.32,3.32,0,0,0,1.679-.448A3.243,3.243,0,0,0,31,19.642,4.13,4.13,0,0,0,31.464,17.629Zm13.455-6.555a4.911,4.911,0,0,1,3.68,1.437A5.5,5.5,0,0,1,50,16.525V24h-3.22V16.962a3.3,3.3,0,0,0-.759-2.335,2.688,2.688,0,0,0-2.07-.816,2.754,2.754,0,0,0-2.1.816,3.273,3.273,0,0,0-.771,2.335V24h-3.22V11.258h3.22v1.587a4.448,4.448,0,0,1,1.645-1.3A5.087,5.087,0,0,1,44.919,11.074Zm7.314,6.509A7.375,7.375,0,0,1,53,14.156a5.555,5.555,0,0,1,5.071-3.105,5.412,5.412,0,0,1,2.369.541,4.737,4.737,0,0,1,1.794,1.438V6.98H65.5V24H62.238V22.114a4.364,4.364,0,0,1-1.679,1.518,5.26,5.26,0,0,1-2.507.575,5.473,5.473,0,0,1-2.944-.828A5.766,5.766,0,0,1,53,21.045,7.5,7.5,0,0,1,52.233,17.583Zm10.028.046a4.13,4.13,0,0,0-.46-2.012,3.243,3.243,0,0,0-1.242-1.288,3.32,3.32,0,0,0-1.679-.448,3.234,3.234,0,0,0-2.886,1.714,4,4,0,0,0-.472,1.99,4.13,4.13,0,0,0,.472,2.013,3.4,3.4,0,0,0,1.242,1.322,3.155,3.155,0,0,0,1.644.46,3.32,3.32,0,0,0,1.679-.448A3.243,3.243,0,0,0,61.8,19.642,4.13,4.13,0,0,0,62.261,17.629Zm12.052,6.578A6.711,6.711,0,0,1,71,23.39a5.879,5.879,0,0,1-2.312-2.311,6.926,6.926,0,0,1-.84-3.45,6.779,6.779,0,0,1,.863-3.45,5.994,5.994,0,0,1,2.357-2.311,7.219,7.219,0,0,1,6.67,0A5.994,5.994,0,0,1,80.1,14.179a6.779,6.779,0,0,1,.862,3.45,6.641,6.641,0,0,1-.885,3.45,6.132,6.132,0,0,1-2.392,2.311A6.956,6.956,0,0,1,74.313,24.207Zm0-2.806a3.35,3.35,0,0,0,1.645-.426,3.092,3.092,0,0,0,1.23-1.277,4.3,4.3,0,0,0,.46-2.07,3.836,3.836,0,0,0-.955-2.794,3.138,3.138,0,0,0-2.334-.978,3.064,3.064,0,0,0-2.312.978,3.894,3.894,0,0,0-.932,2.794,3.955,3.955,0,0,0,.909,2.795A2.991,2.991,0,0,0,74.313,21.4Zm20.861-4.048a7.6,7.6,0,0,1-.092,1.242H85.767a3.168,3.168,0,0,0,.966,2.162,2.979,2.979,0,0,0,2.093.782A2.629,2.629,0,0,0,91.379,20h3.473a5.8,5.8,0,0,1-2.116,3.024,6.177,6.177,0,0,1-3.841,1.185,6.647,6.647,0,0,1-3.3-.817,5.747,5.747,0,0,1-2.277-2.311,7.083,7.083,0,0,1-.816-3.45,7.215,7.215,0,0,1,.805-3.473,5.617,5.617,0,0,1,2.254-2.3,7.237,7.237,0,0,1,6.59-.023,5.5,5.5,0,0,1,2.231,2.219A6.717,6.717,0,0,1,95.174,17.353Zm-3.335-.92a2.554,2.554,0,0,0-.9-1.99A3.178,3.178,0,0,0,88.8,13.7a2.923,2.923,0,0,0-2.012.724,3.186,3.186,0,0,0-1,2.013Zm26.979-5.359a5.115,5.115,0,0,1,3.784,1.437,5.425,5.425,0,0,1,1.438,4.014V24h-3.22V16.962a3.183,3.183,0,0,0-.759-2.288,2.729,2.729,0,0,0-2.07-.793,2.767,2.767,0,0,0-2.081.793,3.154,3.154,0,0,0-.771,2.288V24h-3.22V16.962a3.183,3.183,0,0,0-.759-2.288,2.729,2.729,0,0,0-2.07-.793,2.8,2.8,0,0,0-2.1.793,3.154,3.154,0,0,0-.771,2.288V24h-3.22V11.258h3.22V12.8a4.285,4.285,0,0,1,1.6-1.265,4.987,4.987,0,0,1,2.15-.46,5.532,5.532,0,0,1,2.668.632,4.432,4.432,0,0,1,1.817,1.806,4.613,4.613,0,0,1,1.805-1.771A5.14,5.14,0,0,1,118.818,11.074Zm7.452,6.509a7.375,7.375,0,0,1,.771-3.427,5.647,5.647,0,0,1,2.093-2.3,5.572,5.572,0,0,1,2.956-.805,5.192,5.192,0,0,1,2.5.575,5.064,5.064,0,0,1,1.714,1.449V11.258h3.243V24H136.3V22.137a4.79,4.79,0,0,1-1.714,1.484,5.243,5.243,0,0,1-2.519.587,5.415,5.415,0,0,1-2.932-.828,5.8,5.8,0,0,1-2.093-2.334A7.5,7.5,0,0,1,126.27,17.583Zm10.028.046a4.13,4.13,0,0,0-.46-2.012,3.243,3.243,0,0,0-1.242-1.288,3.32,3.32,0,0,0-1.679-.448,3.234,3.234,0,0,0-2.887,1.714,4,4,0,0,0-.471,1.99,4.13,4.13,0,0,0,.471,2.013,3.4,3.4,0,0,0,1.242,1.322,3.155,3.155,0,0,0,1.645.46,3.32,3.32,0,0,0,1.679-.448,3.243,3.243,0,0,0,1.242-1.288A4.13,4.13,0,0,0,136.3,17.629ZM150.236,24l-4.324-5.428V24h-3.22V6.98h3.22v9.683l4.278-5.405h4.186l-5.612,6.394L154.422,24Zm17.733-6.647a7.6,7.6,0,0,1-.092,1.242h-9.315a3.168,3.168,0,0,0,.966,2.162,2.979,2.979,0,0,0,2.093.782A2.629,2.629,0,0,0,164.174,20h3.473a5.8,5.8,0,0,1-2.116,3.024,6.177,6.177,0,0,1-3.841,1.185,6.647,6.647,0,0,1-3.3-.817,5.747,5.747,0,0,1-2.277-2.311,7.083,7.083,0,0,1-.816-3.45,7.215,7.215,0,0,1,.8-3.473,5.617,5.617,0,0,1,2.254-2.3,7.237,7.237,0,0,1,6.59-.023,5.5,5.5,0,0,1,2.231,2.219A6.716,6.716,0,0,1,167.969,17.353Zm-3.335-.92a2.554,2.554,0,0,0-.9-1.99A3.178,3.178,0,0,0,161.6,13.7a2.923,2.923,0,0,0-2.012.724,3.185,3.185,0,0,0-1,2.013Zm10.557,7.774a6.719,6.719,0,0,1-2.806-.564,4.958,4.958,0,0,1-1.966-1.529,3.876,3.876,0,0,1-.794-2.139h3.243a1.766,1.766,0,0,0,.725,1.219,2.52,2.52,0,0,0,1.576.483,2.446,2.446,0,0,0,1.438-.368,1.114,1.114,0,0,0,.518-.943.994.994,0,0,0-.633-.931,11.9,11.9,0,0,0-2.012-.678,17.055,17.055,0,0,1-2.335-.713,4.053,4.053,0,0,1-1.564-1.127,3.025,3.025,0,0,1-.656-2.047,3.3,3.3,0,0,1,.609-1.932,4.092,4.092,0,0,1,1.748-1.38,6.553,6.553,0,0,1,2.68-.506A5.471,5.471,0,0,1,178.6,12.19a4.218,4.218,0,0,1,1.495,3.07h-3.082a1.668,1.668,0,0,0-.632-1.208,2.852,2.852,0,0,0-2.852-.126,1.026,1.026,0,0,0-.471.9,1.054,1.054,0,0,0,.644.977,10,10,0,0,0,2,.679,16.986,16.986,0,0,1,2.277.713,4.023,4.023,0,0,1,1.552,1.139,3.126,3.126,0,0,1,.679,2.035,3.375,3.375,0,0,1-.61,1.978,4.015,4.015,0,0,1-1.748,1.368A6.623,6.623,0,0,1,175.191,24.207ZM.759,49.583a7.375,7.375,0,0,1,.771-3.427,5.555,5.555,0,0,1,5.071-3.1,5.412,5.412,0,0,1,2.369.541,4.737,4.737,0,0,1,1.794,1.438V38.98H14.03V56H10.764V54.114a4.364,4.364,0,0,1-1.679,1.518,5.26,5.26,0,0,1-2.507.575,5.473,5.473,0,0,1-2.944-.828,5.766,5.766,0,0,1-2.1-2.335A7.5,7.5,0,0,1,.759,49.583Zm10.028.046a4.13,4.13,0,0,0-.46-2.012,3.243,3.243,0,0,0-1.242-1.288,3.32,3.32,0,0,0-1.679-.448A3.234,3.234,0,0,0,4.52,47.593a4,4,0,0,0-.472,1.99A4.13,4.13,0,0,0,4.52,51.6a3.4,3.4,0,0,0,1.242,1.322,3.155,3.155,0,0,0,1.645.46,3.32,3.32,0,0,0,1.679-.448,3.243,3.243,0,0,0,1.242-1.288A4.13,4.13,0,0,0,10.787,49.629Zm8.027-7.889A1.962,1.962,0,0,1,17.4,41.2a1.888,1.888,0,0,1,0-2.691,2.121,2.121,0,0,1,2.829,0,1.888,1.888,0,0,1,0,2.691A1.962,1.962,0,0,1,18.814,41.74ZM20.4,43.258V56h-3.22V43.258Zm8.165-.207a5.348,5.348,0,0,1,2.507.564,4.616,4.616,0,0,1,1.7,1.46V43.258h3.243V56.092a6.836,6.836,0,0,1-.713,3.163,5.293,5.293,0,0,1-2.139,2.208,6.838,6.838,0,0,1-3.45.816,7.37,7.37,0,0,1-4.45-1.265,4.689,4.689,0,0,1-1.966-3.45h3.2a2.38,2.38,0,0,0,1.093,1.392,3.806,3.806,0,0,0,2.035.517,3.15,3.15,0,0,0,2.277-.84,3.372,3.372,0,0,0,.874-2.542V54.114a4.891,4.891,0,0,1-1.714,1.5,5.112,5.112,0,0,1-2.5.6,5.473,5.473,0,0,1-2.944-.828,5.766,5.766,0,0,1-2.1-2.335,7.5,7.5,0,0,1-.771-3.461,7.375,7.375,0,0,1,.771-3.427,5.647,5.647,0,0,1,2.093-2.3A5.572,5.572,0,0,1,28.566,43.051Zm4.209,6.578a4.13,4.13,0,0,0-.46-2.012,3.243,3.243,0,0,0-1.242-1.288,3.32,3.32,0,0,0-1.679-.448,3.234,3.234,0,0,0-2.886,1.713,4,4,0,0,0-.472,1.99,4.13,4.13,0,0,0,.472,2.013,3.4,3.4,0,0,0,1.242,1.322,3.155,3.155,0,0,0,1.645.46,3.32,3.32,0,0,0,1.679-.448,3.243,3.243,0,0,0,1.242-1.288A4.13,4.13,0,0,0,32.775,49.629ZM40.8,41.74a1.962,1.962,0,0,1-1.415-.54,1.888,1.888,0,0,1,0-2.691,2.121,2.121,0,0,1,2.829,0,1.888,1.888,0,0,1,0,2.691A1.962,1.962,0,0,1,40.8,41.74Zm1.587,1.518V56h-3.22V43.258ZM49.312,45.9v6.164a1.218,1.218,0,0,0,.311.931,1.525,1.525,0,0,0,1.047.287h1.495V56H50.14q-4.071,0-4.071-3.956V45.9H44.551V43.258h1.518V40.107h3.243v3.151h2.852V45.9Zm4.347,3.68a7.375,7.375,0,0,1,.771-3.427,5.647,5.647,0,0,1,2.093-2.3,5.572,5.572,0,0,1,2.955-.805,5.192,5.192,0,0,1,2.5.575,5.064,5.064,0,0,1,1.714,1.449V43.258H66.93V56H63.687V54.137a4.79,4.79,0,0,1-1.714,1.483,5.243,5.243,0,0,1-2.519.587,5.415,5.415,0,0,1-2.932-.828,5.8,5.8,0,0,1-2.093-2.335A7.5,7.5,0,0,1,53.659,49.583Zm10.028.046a4.13,4.13,0,0,0-.46-2.012,3.243,3.243,0,0,0-1.242-1.288,3.32,3.32,0,0,0-1.679-.448,3.234,3.234,0,0,0-2.886,1.713,4,4,0,0,0-.472,1.99A4.13,4.13,0,0,0,57.42,51.6a3.4,3.4,0,0,0,1.242,1.322,3.155,3.155,0,0,0,1.644.46,3.32,3.32,0,0,0,1.679-.448,3.243,3.243,0,0,0,1.242-1.288A4.13,4.13,0,0,0,63.687,49.629ZM73.3,38.98V56h-3.22V38.98ZM87.492,56.161a7.625,7.625,0,0,1-3.024-.575A4.966,4.966,0,0,1,82.34,53.93a4.36,4.36,0,0,1-.805-2.553h3.45a2.231,2.231,0,0,0,.7,1.564,2.485,2.485,0,0,0,1.736.575,2.671,2.671,0,0,0,1.771-.541,1.758,1.758,0,0,0,.644-1.414,1.634,1.634,0,0,0-.437-1.173,3.062,3.062,0,0,0-1.092-.725,18.081,18.081,0,0,0-1.806-.586,19.337,19.337,0,0,1-2.541-.909,4.451,4.451,0,0,1-1.679-1.357,3.867,3.867,0,0,1-.7-2.426,4.338,4.338,0,0,1,.713-2.484,4.535,4.535,0,0,1,2-1.622,7.28,7.28,0,0,1,2.944-.563,6.387,6.387,0,0,1,4.036,1.208,4.476,4.476,0,0,1,1.714,3.369H89.447a1.84,1.84,0,0,0-.7-1.368,2.643,2.643,0,0,0-1.736-.541,2.236,2.236,0,0,0-1.507.483,1.746,1.746,0,0,0-.563,1.4,1.45,1.45,0,0,0,.425,1.069,3.245,3.245,0,0,0,1.058.69q.633.265,1.783.61a18.726,18.726,0,0,1,2.553.92,4.585,4.585,0,0,1,1.7,1.38,3.833,3.833,0,0,1,.713,2.415,4.543,4.543,0,0,1-.667,2.392,4.709,4.709,0,0,1-1.955,1.76A6.668,6.668,0,0,1,87.492,56.161Zm10.1-14.421a1.962,1.962,0,0,1-1.415-.54,1.888,1.888,0,0,1,0-2.691,2.121,2.121,0,0,1,2.829,0A1.888,1.888,0,0,1,99,41.2,1.962,1.962,0,0,1,97.589,41.74Zm1.587,1.518V56h-3.22V43.258Zm8.165-.207a5.348,5.348,0,0,1,2.507.564,4.616,4.616,0,0,1,1.7,1.46V43.258h3.243V56.092a6.836,6.836,0,0,1-.713,3.163,5.293,5.293,0,0,1-2.139,2.208,6.838,6.838,0,0,1-3.45.816,7.37,7.37,0,0,1-4.451-1.265,4.689,4.689,0,0,1-1.966-3.45h3.2a2.38,2.38,0,0,0,1.092,1.392,3.806,3.806,0,0,0,2.035.517,3.15,3.15,0,0,0,2.277-.84,3.372,3.372,0,0,0,.874-2.542V54.114a4.891,4.891,0,0,1-1.714,1.5,5.112,5.112,0,0,1-2.5.6,5.473,5.473,0,0,1-2.944-.828,5.766,5.766,0,0,1-2.1-2.335,7.5,7.5,0,0,1-.771-3.461,7.375,7.375,0,0,1,.771-3.427,5.647,5.647,0,0,1,2.093-2.3A5.572,5.572,0,0,1,107.341,43.051Zm4.209,6.578a4.13,4.13,0,0,0-.46-2.012,3.243,3.243,0,0,0-1.242-1.288,3.32,3.32,0,0,0-1.679-.448,3.234,3.234,0,0,0-2.886,1.713,4,4,0,0,0-.472,1.99,4.13,4.13,0,0,0,.472,2.013,3.4,3.4,0,0,0,1.242,1.322,3.155,3.155,0,0,0,1.645.46,3.32,3.32,0,0,0,1.679-.448,3.243,3.243,0,0,0,1.242-1.288A4.13,4.13,0,0,0,111.55,49.629Zm13.455-6.555a4.911,4.911,0,0,1,3.68,1.437,5.5,5.5,0,0,1,1.4,4.014V56h-3.22V48.962a3.3,3.3,0,0,0-.759-2.334,2.688,2.688,0,0,0-2.07-.816,2.754,2.754,0,0,0-2.1.816,3.273,3.273,0,0,0-.771,2.334V56h-3.22V43.258h3.22v1.587a4.448,4.448,0,0,1,1.645-1.3A5.087,5.087,0,0,1,125.005,43.074Zm7.314,6.509a7.375,7.375,0,0,1,.77-3.427,5.647,5.647,0,0,1,2.093-2.3,5.572,5.572,0,0,1,2.956-.805,5.192,5.192,0,0,1,2.5.575,5.064,5.064,0,0,1,1.714,1.449V43.258h3.243V56h-3.243V54.137a4.79,4.79,0,0,1-1.714,1.483,5.243,5.243,0,0,1-2.519.587,5.415,5.415,0,0,1-2.932-.828,5.8,5.8,0,0,1-2.093-2.335A7.5,7.5,0,0,1,132.319,49.583Zm10.028.046a4.13,4.13,0,0,0-.46-2.012,3.243,3.243,0,0,0-1.242-1.288,3.32,3.32,0,0,0-1.679-.448,3.234,3.234,0,0,0-2.887,1.713,4,4,0,0,0-.471,1.99,4.13,4.13,0,0,0,.471,2.013,3.4,3.4,0,0,0,1.242,1.322,3.155,3.155,0,0,0,1.645.46,3.32,3.32,0,0,0,1.679-.448,3.243,3.243,0,0,0,1.242-1.288A4.13,4.13,0,0,0,142.347,49.629Zm11.385-6.578a5.348,5.348,0,0,1,2.507.564,4.616,4.616,0,0,1,1.7,1.46V43.258h3.243V56.092a6.836,6.836,0,0,1-.713,3.163,5.293,5.293,0,0,1-2.139,2.208,6.838,6.838,0,0,1-3.45.816,7.37,7.37,0,0,1-4.451-1.265,4.689,4.689,0,0,1-1.966-3.45h3.2a2.38,2.38,0,0,0,1.092,1.392,3.806,3.806,0,0,0,2.036.517,3.15,3.15,0,0,0,2.277-.84,3.372,3.372,0,0,0,.874-2.542V54.114a4.891,4.891,0,0,1-1.714,1.5,5.112,5.112,0,0,1-2.5.6,5.473,5.473,0,0,1-2.944-.828,5.766,5.766,0,0,1-2.1-2.335,7.5,7.5,0,0,1-.77-3.461,7.375,7.375,0,0,1,.77-3.427,5.647,5.647,0,0,1,2.093-2.3A5.572,5.572,0,0,1,153.732,43.051Zm4.209,6.578a4.13,4.13,0,0,0-.46-2.012,3.243,3.243,0,0,0-1.242-1.288,3.32,3.32,0,0,0-1.679-.448,3.234,3.234,0,0,0-2.887,1.713,4,4,0,0,0-.471,1.99,4.13,4.13,0,0,0,.471,2.013,3.4,3.4,0,0,0,1.242,1.322,3.155,3.155,0,0,0,1.645.46,3.32,3.32,0,0,0,1.679-.448,3.243,3.243,0,0,0,1.242-1.288A4.13,4.13,0,0,0,157.941,49.629Zm18.239-.276a7.6,7.6,0,0,1-.092,1.242h-9.315a3.168,3.168,0,0,0,.966,2.162,2.979,2.979,0,0,0,2.093.782A2.629,2.629,0,0,0,172.385,52h3.473a5.8,5.8,0,0,1-2.116,3.024,6.177,6.177,0,0,1-3.841,1.185,6.647,6.647,0,0,1-3.3-.817,5.747,5.747,0,0,1-2.277-2.312,7.083,7.083,0,0,1-.816-3.45,7.215,7.215,0,0,1,.8-3.473,5.617,5.617,0,0,1,2.254-2.3,7.237,7.237,0,0,1,6.59-.023,5.5,5.5,0,0,1,2.231,2.219A6.717,6.717,0,0,1,176.18,49.353Zm-3.335-.92a2.554,2.554,0,0,0-.9-1.989,3.178,3.178,0,0,0-2.139-.748,2.923,2.923,0,0,0-2.012.725,3.185,3.185,0,0,0-1,2.012Zm16.7,7.728a7.625,7.625,0,0,1-3.025-.575,4.966,4.966,0,0,1-2.128-1.656,4.36,4.36,0,0,1-.8-2.553h3.45a2.231,2.231,0,0,0,.7,1.564,2.485,2.485,0,0,0,1.737.575,2.671,2.671,0,0,0,1.771-.541,1.758,1.758,0,0,0,.644-1.414,1.634,1.634,0,0,0-.437-1.173,3.062,3.062,0,0,0-1.092-.725,18.08,18.08,0,0,0-1.805-.586,19.336,19.336,0,0,1-2.542-.909,4.451,4.451,0,0,1-1.679-1.357,3.867,3.867,0,0,1-.7-2.426,4.338,4.338,0,0,1,.713-2.484,4.535,4.535,0,0,1,2-1.622,7.28,7.28,0,0,1,2.944-.563,6.387,6.387,0,0,1,4.036,1.208,4.476,4.476,0,0,1,1.714,3.369H191.5a1.84,1.84,0,0,0-.7-1.368,2.643,2.643,0,0,0-1.736-.541,2.236,2.236,0,0,0-1.507.483,1.746,1.746,0,0,0-.564,1.4,1.45,1.45,0,0,0,.426,1.069,3.245,3.245,0,0,0,1.058.69q.632.265,1.783.61a18.726,18.726,0,0,1,2.553.92,4.585,4.585,0,0,1,1.7,1.38,3.833,3.833,0,0,1,.713,2.415,4.543,4.543,0,0,1-.667,2.392,4.709,4.709,0,0,1-1.955,1.76A6.668,6.668,0,0,1,189.543,56.161Zm10.1-14.421a1.962,1.962,0,0,1-1.415-.54,1.888,1.888,0,0,1,0-2.691,2.121,2.121,0,0,1,2.829,0,1.888,1.888,0,0,1,0,2.691A1.962,1.962,0,0,1,199.64,41.74Zm1.587,1.518V56h-3.22V43.258Zm19-.184a5.115,5.115,0,0,1,3.784,1.437,5.425,5.425,0,0,1,1.438,4.014V56h-3.22V48.962a3.183,3.183,0,0,0-.759-2.288,2.729,2.729,0,0,0-2.07-.793,2.767,2.767,0,0,0-2.082.793,3.154,3.154,0,0,0-.77,2.288V56h-3.22V48.962a3.183,3.183,0,0,0-.759-2.288,2.729,2.729,0,0,0-2.07-.793,2.8,2.8,0,0,0-2.1.793,3.154,3.154,0,0,0-.77,2.288V56H204.4V43.258h3.22V44.8a4.285,4.285,0,0,1,1.6-1.265,4.987,4.987,0,0,1,2.15-.46,5.532,5.532,0,0,1,2.668.632,4.432,4.432,0,0,1,1.817,1.806,4.613,4.613,0,0,1,1.805-1.771A5.14,5.14,0,0,1,220.225,43.074Zm11.5,2.024a4.889,4.889,0,0,1,1.713-1.46,5.193,5.193,0,0,1,2.5-.587,5.572,5.572,0,0,1,2.955.805,5.664,5.664,0,0,1,2.093,2.289,7.357,7.357,0,0,1,.77,3.438,7.5,7.5,0,0,1-.77,3.461,5.8,5.8,0,0,1-2.093,2.335,5.455,5.455,0,0,1-2.955.828,5.141,5.141,0,0,1-2.473-.575,5.3,5.3,0,0,1-1.736-1.449v7.889h-3.22V43.258h3.22Zm6.739,4.485a4,4,0,0,0-.472-1.99,3.264,3.264,0,0,0-1.242-1.276,3.324,3.324,0,0,0-1.668-.437,3.216,3.216,0,0,0-1.645.448,3.329,3.329,0,0,0-1.242,1.3,4.482,4.482,0,0,0,0,4,3.329,3.329,0,0,0,1.242,1.3,3.246,3.246,0,0,0,3.312-.012,3.415,3.415,0,0,0,1.242-1.311A4.114,4.114,0,0,0,238.464,49.583Zm8.855-10.6V56H244.1V38.98Zm15.019,10.373a7.6,7.6,0,0,1-.092,1.242h-9.315a3.168,3.168,0,0,0,.966,2.162,2.979,2.979,0,0,0,2.093.782A2.629,2.629,0,0,0,258.543,52h3.473a5.8,5.8,0,0,1-2.116,3.024,6.177,6.177,0,0,1-3.841,1.185,6.647,6.647,0,0,1-3.3-.817,5.747,5.747,0,0,1-2.277-2.312,7.083,7.083,0,0,1-.816-3.45,7.215,7.215,0,0,1,.8-3.473,5.617,5.617,0,0,1,2.254-2.3,7.237,7.237,0,0,1,6.59-.023,5.5,5.5,0,0,1,2.231,2.219A6.716,6.716,0,0,1,262.338,49.353ZM259,48.433a2.553,2.553,0,0,0-.9-1.989,3.178,3.178,0,0,0-2.139-.748,2.923,2.923,0,0,0-2.013.725,3.185,3.185,0,0,0-1,2.012Z" transform="translate(71 522.5)" fill="#fff"></path><path id="Line_567" data-name="Line 567" d="M38.9,1.308H.029a1.279,1.279,0,0,1,0-2.558H38.9a1.279,1.279,0,0,1,0,2.558Z" transform="translate(255.567 583.471)" fill="#23adf8"></path><path id="Line_568" data-name="Line 568" d="M23.056,1.308H.11A1.322,1.322,0,0,1-1.25.029,1.322,1.322,0,0,1,.11-1.25H23.056A1.322,1.322,0,0,1,24.416.029,1.322,1.322,0,0,1,23.056,1.308Z" transform="translate(308.922 583.471)" fill="#23adf8"></path></g></svg> 