<?xml version="1.0" encoding="UTF-8"?> <svg xmlns="http://www.w3.org/2000/svg" xmlns:v="https://vecta.io/nano" width="165.23" height="23.535"><defs><clipPath id="A"><path fill="none" d="M0 0h165.23v23.535H0z"></path></clipPath></defs><g clip-path="url(#A)" fill="#fff"><path d="M30.6 22.387L19.734.587a1.06 1.06 0 0 0-.947-.586 1.06 1.06 0 0 0-.947.586l-2.494 5-2.494-5a1.06 1.06 0 0 0-.947-.586 1.06 1.06 0 0 0-.947.586L.085 22.386c-.123.247-.11.54.036.775a.79.79 0 0 0 .679.374h9.237a1.31 1.31 0 0 0 1.177-.729l.619-1.243h7.029l.622 1.243c.224.445.679.727 1.177.729h9.237c.275 0 .531-.143.675-.377s.158-.526.035-.772m-4.526-1.845c-.067.109-.185.174-.313.174h-2.843a.55.55 0 0 1-.5-.308l-5.41-10.9a.93.93 0 0 1 0-.83l1.35-2.708c.059-.12.182-.197.316-.197s.257.076.317.197l7.09 14.215c.058.114.052.249-.015.358m-8.013-2.228a.3.3 0 0 1-.261.145h-4.914a.3.3 0 0 1-.261-.145.31.31 0 0 1-.014-.3l2.509-5.032a.25.25 0 0 1 .448 0l2.509 5.032c.048.096.042.209-.014.3m-4.4-8.807l-5.41 10.9a.55.55 0 0 1-.5.308H4.924c-.128 0-.246-.066-.313-.175s-.073-.244-.015-.358l7.09-14.215c.059-.12.182-.197.316-.197a.35.35 0 0 1 .316.197l1.35 2.708a.93.93 0 0 1 0 .83m37.883.574l-5.082-6.982h-4.112v17.335h3.768V8.883l4.888 6.686h.928l5.011-6.681v11.544h3.768V3.097h-4.089zm47.828 3.179L91.653 3.097h-2.778l-.268.053v17.284h3.5l.268-.053V10.27l7.723 10.164h.09 2.689l.267-.053V3.097h-3.763zm17.59-10.161h-6.893v17.335h6.893c2.337.095 4.61-.769 6.295-2.391a8.96 8.96 0 0 0 2.385-6.444c-.068-3.924-2.382-8.506-8.68-8.506m4.946 8.5a5.25 5.25 0 0 1-1.345 3.857 4.82 4.82 0 0 1-3.6 1.345h-3.148V6.662h3.148a4.67 4.67 0 0 1 4.947 4.93m16.667-8.874c-6.135 0-8.93 4.741-8.93 9.146 0 4.457 2.761 8.954 8.93 8.954 6.084 0 8.857-4.507 8.906-8.975a9.32 9.32 0 0 0-2.558-6.651c-1.691-1.655-3.983-2.548-6.348-2.474m5.186 9.164c-.045 2.625-1.432 5.431-5.186 5.431-3.737 0-5.142-2.794-5.21-5.409-.08-1.574.472-3.115 1.534-4.279 2.067-1.891 5.232-1.904 7.314-.03a5.96 5.96 0 0 1 1.547 4.287m21.461-5.079V3.097h-13.162v17.335h13.162v-3.711h-9.419V13.54h9.084V9.987h-9.084V6.803zM76.842 3.105h-3.88l-7.777 17.339h4.089l.969-2.13 9.321.02.943 2.11h4.114L76.926 3.287zm1.316 11.994h-6.461l3.207-7.45z"></path></g></svg> 